 <svg  version="1.0" xmlns="http://www.w3.org/2000/svg"  width="300.000000pt" height="243.000000pt" viewBox="0 0 300.000000 243.000000"  preserveAspectRatio="xMidYMid meet">  <g transform="translate(0.000000,243.000000) scale(0.100000,-0.100000)" fill="#bf401c" stroke="none"> <path d="M1125 2380 c-270 -6 -329 -16 -450 -78 -205 -103 -379 -344 -431 -595 -20 -98 -31 -686 -15 -852 29 -316 165 -550 406 -701 143 -88 258 -114 513 -114 270 0 357 24 462 126 25 24 50 44 54 44 5 0 34 -21 65 -46 113 -93 211 -124 401 -124 268 0 437 61 570 207 55 60 131 205 151 288 9 35 13 219 15 627 2 547 1 578 -16 583 -21 7 -402 5 -442 -2 l-27 -4 -3 -477 -3 -477 -29 -53 c-52 -93 -123 -131 -248 -132 -138 0 -214 42 -260 144 -23 50 -23 58 -26 434 l-3 382 -127 1 c-70 1 -172 3 -227 4 -55 1 -108 0 -117 -3 -17 -4 -18 -34 -18 -451 0 -245 -4 -451 -8 -458 -5 -8 -60 -12 -182 -14 -164 -2 -178 -1 -228 21 -73 32 -134 102 -156 178 -13 49 -16 112 -16 384 0 385 3 401 86 485 87 88 84 87 618 90 252 1 461 4 463 7 4 3 5 185 3 543 l0 32 -262 3 c-145 2 -375 1 -513 -2z"/> </g> </svg> 